<svg xmlns="http://www.w3.org/2000/svg" version="1.1" xmlns:xlink="http://www.w3.org/1999/xlink" xmlns:svgjs="http://svgjs.dev/svgjs" width="1500" height="1500" viewBox="0 0 1500 1500"><rect width="1500" height="1500" fill="#111111"></rect><g transform="matrix(0.6666666666666666,0,0,0.6666666666666666,249.1162673301858,326.30243902439037)"><svg viewBox="0 0 388 328" data-background-color="#111111" preserveAspectRatio="xMidYMid meet" height="1268" width="1500" xmlns="http://www.w3.org/2000/svg" xmlns:xlink="http://www.w3.org/1999/xlink"><g id="tight-bounds" transform="matrix(1,0,0,1,0.34338683497753664,0.39999999999997726)"><svg viewBox="0 0 387.3120487588574 327.2" height="327.2" width="387.3120487588574"><g><svg viewBox="0 0 395.52 334.1340513797802" height="327.2" width="387.3120487588574"><g transform="matrix(1,0,0,1,0,218.7817379184235)"><svg viewBox="0 0 395.52 115.3523134613567" height="115.3523134613567" width="395.52"><g id="textblocktransform"><svg viewBox="0 0 395.52 115.3523134613567" height="115.3523134613567" width="395.52" id="textblock"><g><svg viewBox="0 0 395.52 82.525628479997" height="82.525628479997" width="395.52"><g transform="matrix(1,0,0,1,0,0)"><svg width="395.52" viewBox="0.2391025771547694 -15.554269548659338 108.47729357932673 22.63385704865934" height="82.525628479997" data-palette-color="#ffffff"><path d="M8.481 6.666v0c-1.8 0.443-3.147 0.449-4.043 0.017-0.891-0.44-1.542-1.368-1.953-2.783v0c-0.267-0.806-0.533-1.705-0.798-2.698-0.273-0.997-0.522-2.007-0.747-3.029-0.229-1.015-0.414-1.944-0.553-2.789v0c-0.296-1.451-0.148-2.579 0.443-3.384 0.593-0.798 1.786-1.418 3.579-1.86v0c1.812-0.447 3.154-0.451 4.024-0.013 0.878 0.443 1.523 1.376 1.936 2.798v0c0.266 0.8 0.531 1.696 0.796 2.688 0.273 0.997 0.521 2.004 0.744 3.019 0.229 1.015 0.415 1.951 0.558 2.808v0c0.293 1.438 0.153 2.558-0.419 3.358-0.565 0.798-1.754 1.421-3.567 1.868zM8.024 4.811v0c1.016-0.25 1.708-0.551 2.074-0.902 0.373-0.353 0.505-0.821 0.396-1.406v0c-0.314-1.749-0.654-3.365-1.02-4.847-0.365-1.482-0.815-3.071-1.349-4.765v0c-0.176-0.575-0.505-0.933-0.986-1.076-0.48-0.136-1.237-0.076-2.273 0.179v0c-1.042 0.257-1.744 0.557-2.106 0.9-0.367 0.351-0.494 0.822-0.383 1.413v0c0.321 1.747 0.664 3.365 1.031 4.854 0.359 1.484 0.804 3.07 1.337 4.758v0c0.161 0.571 0.496 0.925 1.003 1.061 0.507 0.136 1.266 0.08 2.276-0.169zM30.282-8.416v0l-2.127 0.315c-0.011-0.396-0.058-0.847-0.139-1.354-0.075-0.508-0.134-0.903-0.176-1.187v0c-0.101-0.592-0.396-0.966-0.884-1.123-0.488-0.157-1.25-0.159-2.285-0.005v0c-1.062 0.157-1.8 0.381-2.216 0.671-0.415 0.291-0.586 0.734-0.511 1.33v0c0.182 1.779 0.386 3.43 0.612 4.953 0.226 1.53 0.509 3.166 0.848 4.909v0c0.105 0.618 0.399 1.012 0.883 1.184 0.483 0.164 1.248 0.169 2.296 0.014v0c1.035-0.153 1.767-0.379 2.195-0.679 0.426-0.306 0.6-0.77 0.522-1.391v0c-0.045-0.303-0.1-0.673-0.164-1.108-0.058-0.436-0.148-0.908-0.27-1.416v0l2.126-0.315c0.107 0.314 0.19 0.69 0.248 1.126 0.058 0.436 0.103 0.831 0.134 1.183v0c0.13 1.335-0.144 2.353-0.821 3.053-0.673 0.693-1.902 1.171-3.69 1.436v0c-1.8 0.266-3.136 0.168-4.007-0.297-0.865-0.472-1.425-1.366-1.68-2.683v0c-0.17-0.831-0.345-1.806-0.524-2.924-0.187-1.125-0.354-2.256-0.502-3.393-0.155-1.136-0.271-2.13-0.351-2.981v0c-0.143-1.374 0.138-2.413 0.843-3.117 0.705-0.697 1.955-1.179 3.749-1.445v0c1.774-0.263 3.096-0.165 3.966 0.293 0.863 0.459 1.405 1.342 1.625 2.651v0c0.07 0.333 0.14 0.717 0.211 1.151 0.071 0.434 0.101 0.817 0.089 1.149zM45.302 1.462v0c-1.877 0.101-3.231-0.121-4.061-0.664-0.831-0.55-1.312-1.492-1.443-2.827v0c-0.092-0.843-0.175-1.83-0.249-2.961-0.081-1.137-0.142-2.279-0.183-3.425-0.048-1.146-0.071-2.146-0.071-3.001v0c-0.014-1.381 0.376-2.39 1.17-3.026 0.787-0.63 2.097-0.993 3.927-1.092v0c1.724-0.092 2.988 0.13 3.792 0.668 0.803 0.538 1.28 1.467 1.431 2.788v0c0.048 0.398 0.108 1.089 0.181 2.073 0.08 0.99 0.103 2.044 0.069 3.161v0l-8.159 0.437c0.038 0.719 0.081 1.448 0.128 2.186 0.053 0.732 0.117 1.496 0.192 2.293v0c0.047 0.625 0.31 1.045 0.789 1.26 0.478 0.208 1.25 0.284 2.315 0.226v0c1.058-0.057 1.798-0.213 2.218-0.469 0.413-0.262 0.626-0.708 0.64-1.336v0c0-0.628-0.046-1.48-0.137-2.557v0l2.117-0.113c0.071 0.323 0.118 0.705 0.141 1.144 0.017 0.44 0.021 0.837 0.014 1.191v0c-0.008 1.342-0.363 2.329-1.063 2.961-0.701 0.625-1.953 0.986-3.758 1.083zM41.61-8.215v0l6.081-0.325c-0.021-0.773-0.051-1.513-0.089-2.219-0.037-0.699-0.087-1.18-0.147-1.444v0c-0.077-0.563-0.342-0.956-0.794-1.179-0.459-0.216-1.181-0.297-2.166-0.245v0c-1.105 0.059-1.884 0.221-2.338 0.486-0.459 0.272-0.681 0.691-0.664 1.257v0c0.002 0.661 0.009 1.295 0.022 1.902 0.019 0.6 0.05 1.189 0.095 1.767zM62.557 1.417v0c-1.386-0.056-2.4-0.37-3.044-0.943-0.644-0.573-1-1.441-1.066-2.605v0c-0.004-0.227-0.008-0.454-0.013-0.681-0.011-0.227 0.001-0.45 0.037-0.669v0c0.121-1.009 0.471-1.846 1.052-2.51 0.587-0.664 1.671-1.247 3.253-1.751v0c0.642-0.208 1.32-0.387 2.033-0.539 0.713-0.151 1.42-0.3 2.119-0.445v0l0.127-3.147c0.022-0.56-0.171-0.981-0.58-1.265-0.409-0.283-1.136-0.446-2.182-0.488v0c-0.913-0.037-1.61 0.049-2.092 0.256-0.482 0.207-0.755 0.61-0.819 1.208v0c-0.038 0.285-0.068 0.691-0.089 1.218-0.021 0.533-0.026 0.98-0.014 1.34v0l-2.138-0.086c-0.009-0.281-0.014-0.651-0.015-1.111-0.008-0.454 0.011-0.857 0.058-1.209v0c0.113-1.317 0.581-2.248 1.404-2.796 0.823-0.554 2.11-0.796 3.862-0.725v0c1.832 0.074 3.088 0.441 3.769 1.102 0.687 0.668 1.008 1.729 0.963 3.182v0l-0.512 12.719-2.148-0.086 0.063-1.569-0.48-0.019c-0.309 0.555-0.733 0.975-1.271 1.26-0.538 0.279-1.297 0.398-2.277 0.359zM63.181-0.41v0c1.632 0.066 2.781-0.375 3.446-1.322v0l0.208-5.166c-0.551 0.091-1.116 0.202-1.695 0.332-0.579 0.13-1.26 0.31-2.043 0.538v0c-0.933 0.303-1.562 0.671-1.886 1.105-0.324 0.427-0.521 0.936-0.592 1.528v0c0 0.173-0.001 0.36-0.002 0.56-0.001 0.193 0.007 0.401 0.025 0.622v0c0.051 0.549 0.304 0.98 0.758 1.291 0.455 0.312 1.048 0.482 1.781 0.512zM81.256-10.641l-1.787 13.291-2.181-0.294 2.213-16.452 2.181 0.294-0.207 1.536 0.525 0.071c0.426-0.515 0.943-0.886 1.552-1.113 0.616-0.227 1.356-0.282 2.222-0.166v0c1.275 0.172 2.186 0.577 2.733 1.215 0.539 0.644 0.721 1.617 0.546 2.919v0l-1.755 13.043-2.16-0.291 1.778-13.221c0.076-0.568-0.047-1.002-0.37-1.301-0.316-0.298-0.871-0.501-1.664-0.607v0c-0.786-0.106-1.498-0.064-2.136 0.126-0.631 0.191-1.128 0.508-1.49 0.95zM100.706 6.769v0c-1.831-0.428-3.069-1.018-3.715-1.772-0.644-0.76-0.843-1.799-0.596-3.117v0c0.147-0.835 0.343-1.806 0.588-2.913 0.24-1.115 0.5-2.228 0.78-3.34 0.274-1.114 0.531-2.081 0.77-2.901v0c0.372-1.33 1.029-2.19 1.969-2.579 0.932-0.385 2.291-0.369 4.076 0.048v0c1.681 0.393 2.833 0.96 3.454 1.7 0.621 0.741 0.82 1.766 0.595 3.077v0c-0.065 0.396-0.2 1.076-0.405 2.041-0.2 0.973-0.472 1.991-0.816 3.054v0l-7.956-1.858c-0.164 0.701-0.327 1.413-0.488 2.135-0.154 0.717-0.306 1.469-0.455 2.255v0c-0.13 0.613 0.006 1.09 0.405 1.43 0.401 0.333 1.121 0.621 2.16 0.864v0c1.032 0.241 1.786 0.297 2.261 0.169 0.47-0.137 0.799-0.505 0.987-1.105v0c0.175-0.603 0.369-1.434 0.583-2.492v0l2.064 0.482c-0.022 0.33-0.084 0.71-0.184 1.138-0.107 0.427-0.213 0.809-0.319 1.147v0c-0.383 1.287-0.999 2.135-1.848 2.547-0.848 0.404-2.151 0.401-3.91-0.01zM99.862-3.554v0l5.93 1.386c0.195-0.749 0.373-1.467 0.535-2.155 0.159-0.682 0.246-1.158 0.261-1.428v0c0.083-0.562-0.061-1.014-0.433-1.354-0.38-0.335-1.051-0.615-2.012-0.84v0c-1.078-0.252-1.871-0.314-2.38-0.186-0.517 0.133-0.847 0.473-0.988 1.022v0c-0.183 0.635-0.353 1.246-0.51 1.832-0.149 0.581-0.284 1.156-0.403 1.723z" opacity="1" transform="matrix(1,0,0,1,0,0)" fill="#ffffff" class="wordmark-text-0" data-fill-palette-color="primary" id="text-0"></path></svg></g></svg></g><g transform="matrix(1,0,0,1,118.31980799999998,91.40945787135918)"><svg viewBox="0 0 158.88038400000002 23.942855589997528" height="23.942855589997528" width="158.88038400000002"><g transform="matrix(1,0,0,1,0,0)"><svg width="158.88038400000002" viewBox="1.81 -38.57 295.8 44.58" height="23.942855589997528" data-palette-color="url(#17e228b1-5783-400c-910f-03c0de99ae1d)"></svg></g></svg></g></svg></g></svg></g><g transform="matrix(1,0,0,1,104.41658929107619,0)"><svg viewBox="0 0 186.6868214178476 186.64004318047512" height="186.64004318047512" width="186.6868214178476"><g><svg xmlns="http://www.w3.org/2000/svg" xmlns:xlink="http://www.w3.org/1999/xlink" version="1.1" x="0" y="0" viewBox="0.987969594543505 1 48.01203040545649 48" enable-background="new 0 0 50 50" xml:space="preserve" height="186.64004318047512" width="186.6868214178476" class="icon-icon-0" data-fill-palette-color="accent" id="icon-0"></svg></g></svg></g><g></g></svg></g><defs></defs><mask id="b4bc1742-4c8c-445b-acbc-daae97bc9d67"><g id="SvgjsG3311"><svg viewBox="0 0 387.3120487588574 327.2" height="327.2" width="387.3120487588574"><g><svg viewBox="0 0 395.52 334.1340513797802" height="327.2" width="387.3120487588574"><g transform="matrix(1,0,0,1,0,218.7817379184235)"><svg viewBox="0 0 395.52 115.3523134613567" height="115.3523134613567" width="395.52"><g id="SvgjsG3310"><svg viewBox="0 0 395.52 115.3523134613567" height="115.3523134613567" width="395.52" id="SvgjsSvg3309"><g><svg viewBox="0 0 395.52 82.525628479997" height="82.525628479997" width="395.52"><g transform="matrix(1,0,0,1,0,0)"><svg width="395.52" viewBox="0.2391025771547694 -15.554269548659338 108.47729357932673 22.63385704865934" height="82.525628479997" data-palette-color="#ffffff"><path d="M8.481 6.666v0c-1.8 0.443-3.147 0.449-4.043 0.017-0.891-0.44-1.542-1.368-1.953-2.783v0c-0.267-0.806-0.533-1.705-0.798-2.698-0.273-0.997-0.522-2.007-0.747-3.029-0.229-1.015-0.414-1.944-0.553-2.789v0c-0.296-1.451-0.148-2.579 0.443-3.384 0.593-0.798 1.786-1.418 3.579-1.86v0c1.812-0.447 3.154-0.451 4.024-0.013 0.878 0.443 1.523 1.376 1.936 2.798v0c0.266 0.8 0.531 1.696 0.796 2.688 0.273 0.997 0.521 2.004 0.744 3.019 0.229 1.015 0.415 1.951 0.558 2.808v0c0.293 1.438 0.153 2.558-0.419 3.358-0.565 0.798-1.754 1.421-3.567 1.868zM8.024 4.811v0c1.016-0.25 1.708-0.551 2.074-0.902 0.373-0.353 0.505-0.821 0.396-1.406v0c-0.314-1.749-0.654-3.365-1.02-4.847-0.365-1.482-0.815-3.071-1.349-4.765v0c-0.176-0.575-0.505-0.933-0.986-1.076-0.48-0.136-1.237-0.076-2.273 0.179v0c-1.042 0.257-1.744 0.557-2.106 0.9-0.367 0.351-0.494 0.822-0.383 1.413v0c0.321 1.747 0.664 3.365 1.031 4.854 0.359 1.484 0.804 3.07 1.337 4.758v0c0.161 0.571 0.496 0.925 1.003 1.061 0.507 0.136 1.266 0.08 2.276-0.169zM30.282-8.416v0l-2.127 0.315c-0.011-0.396-0.058-0.847-0.139-1.354-0.075-0.508-0.134-0.903-0.176-1.187v0c-0.101-0.592-0.396-0.966-0.884-1.123-0.488-0.157-1.25-0.159-2.285-0.005v0c-1.062 0.157-1.8 0.381-2.216 0.671-0.415 0.291-0.586 0.734-0.511 1.33v0c0.182 1.779 0.386 3.43 0.612 4.953 0.226 1.53 0.509 3.166 0.848 4.909v0c0.105 0.618 0.399 1.012 0.883 1.184 0.483 0.164 1.248 0.169 2.296 0.014v0c1.035-0.153 1.767-0.379 2.195-0.679 0.426-0.306 0.6-0.77 0.522-1.391v0c-0.045-0.303-0.1-0.673-0.164-1.108-0.058-0.436-0.148-0.908-0.27-1.416v0l2.126-0.315c0.107 0.314 0.19 0.69 0.248 1.126 0.058 0.436 0.103 0.831 0.134 1.183v0c0.13 1.335-0.144 2.353-0.821 3.053-0.673 0.693-1.902 1.171-3.69 1.436v0c-1.8 0.266-3.136 0.168-4.007-0.297-0.865-0.472-1.425-1.366-1.68-2.683v0c-0.17-0.831-0.345-1.806-0.524-2.924-0.187-1.125-0.354-2.256-0.502-3.393-0.155-1.136-0.271-2.13-0.351-2.981v0c-0.143-1.374 0.138-2.413 0.843-3.117 0.705-0.697 1.955-1.179 3.749-1.445v0c1.774-0.263 3.096-0.165 3.966 0.293 0.863 0.459 1.405 1.342 1.625 2.651v0c0.07 0.333 0.14 0.717 0.211 1.151 0.071 0.434 0.101 0.817 0.089 1.149zM45.302 1.462v0c-1.877 0.101-3.231-0.121-4.061-0.664-0.831-0.55-1.312-1.492-1.443-2.827v0c-0.092-0.843-0.175-1.83-0.249-2.961-0.081-1.137-0.142-2.279-0.183-3.425-0.048-1.146-0.071-2.146-0.071-3.001v0c-0.014-1.381 0.376-2.39 1.17-3.026 0.787-0.63 2.097-0.993 3.927-1.092v0c1.724-0.092 2.988 0.13 3.792 0.668 0.803 0.538 1.28 1.467 1.431 2.788v0c0.048 0.398 0.108 1.089 0.181 2.073 0.08 0.99 0.103 2.044 0.069 3.161v0l-8.159 0.437c0.038 0.719 0.081 1.448 0.128 2.186 0.053 0.732 0.117 1.496 0.192 2.293v0c0.047 0.625 0.31 1.045 0.789 1.26 0.478 0.208 1.25 0.284 2.315 0.226v0c1.058-0.057 1.798-0.213 2.218-0.469 0.413-0.262 0.626-0.708 0.64-1.336v0c0-0.628-0.046-1.48-0.137-2.557v0l2.117-0.113c0.071 0.323 0.118 0.705 0.141 1.144 0.017 0.44 0.021 0.837 0.014 1.191v0c-0.008 1.342-0.363 2.329-1.063 2.961-0.701 0.625-1.953 0.986-3.758 1.083zM41.61-8.215v0l6.081-0.325c-0.021-0.773-0.051-1.513-0.089-2.219-0.037-0.699-0.087-1.18-0.147-1.444v0c-0.077-0.563-0.342-0.956-0.794-1.179-0.459-0.216-1.181-0.297-2.166-0.245v0c-1.105 0.059-1.884 0.221-2.338 0.486-0.459 0.272-0.681 0.691-0.664 1.257v0c0.002 0.661 0.009 1.295 0.022 1.902 0.019 0.6 0.05 1.189 0.095 1.767zM62.557 1.417v0c-1.386-0.056-2.4-0.37-3.044-0.943-0.644-0.573-1-1.441-1.066-2.605v0c-0.004-0.227-0.008-0.454-0.013-0.681-0.011-0.227 0.001-0.45 0.037-0.669v0c0.121-1.009 0.471-1.846 1.052-2.51 0.587-0.664 1.671-1.247 3.253-1.751v0c0.642-0.208 1.32-0.387 2.033-0.539 0.713-0.151 1.42-0.3 2.119-0.445v0l0.127-3.147c0.022-0.56-0.171-0.981-0.58-1.265-0.409-0.283-1.136-0.446-2.182-0.488v0c-0.913-0.037-1.61 0.049-2.092 0.256-0.482 0.207-0.755 0.61-0.819 1.208v0c-0.038 0.285-0.068 0.691-0.089 1.218-0.021 0.533-0.026 0.98-0.014 1.34v0l-2.138-0.086c-0.009-0.281-0.014-0.651-0.015-1.111-0.008-0.454 0.011-0.857 0.058-1.209v0c0.113-1.317 0.581-2.248 1.404-2.796 0.823-0.554 2.11-0.796 3.862-0.725v0c1.832 0.074 3.088 0.441 3.769 1.102 0.687 0.668 1.008 1.729 0.963 3.182v0l-0.512 12.719-2.148-0.086 0.063-1.569-0.48-0.019c-0.309 0.555-0.733 0.975-1.271 1.26-0.538 0.279-1.297 0.398-2.277 0.359zM63.181-0.41v0c1.632 0.066 2.781-0.375 3.446-1.322v0l0.208-5.166c-0.551 0.091-1.116 0.202-1.695 0.332-0.579 0.13-1.26 0.31-2.043 0.538v0c-0.933 0.303-1.562 0.671-1.886 1.105-0.324 0.427-0.521 0.936-0.592 1.528v0c0 0.173-0.001 0.36-0.002 0.56-0.001 0.193 0.007 0.401 0.025 0.622v0c0.051 0.549 0.304 0.98 0.758 1.291 0.455 0.312 1.048 0.482 1.781 0.512zM81.256-10.641l-1.787 13.291-2.181-0.294 2.213-16.452 2.181 0.294-0.207 1.536 0.525 0.071c0.426-0.515 0.943-0.886 1.552-1.113 0.616-0.227 1.356-0.282 2.222-0.166v0c1.275 0.172 2.186 0.577 2.733 1.215 0.539 0.644 0.721 1.617 0.546 2.919v0l-1.755 13.043-2.16-0.291 1.778-13.221c0.076-0.568-0.047-1.002-0.37-1.301-0.316-0.298-0.871-0.501-1.664-0.607v0c-0.786-0.106-1.498-0.064-2.136 0.126-0.631 0.191-1.128 0.508-1.49 0.95zM100.706 6.769v0c-1.831-0.428-3.069-1.018-3.715-1.772-0.644-0.76-0.843-1.799-0.596-3.117v0c0.147-0.835 0.343-1.806 0.588-2.913 0.24-1.115 0.5-2.228 0.78-3.34 0.274-1.114 0.531-2.081 0.77-2.901v0c0.372-1.33 1.029-2.19 1.969-2.579 0.932-0.385 2.291-0.369 4.076 0.048v0c1.681 0.393 2.833 0.96 3.454 1.7 0.621 0.741 0.82 1.766 0.595 3.077v0c-0.065 0.396-0.2 1.076-0.405 2.041-0.2 0.973-0.472 1.991-0.816 3.054v0l-7.956-1.858c-0.164 0.701-0.327 1.413-0.488 2.135-0.154 0.717-0.306 1.469-0.455 2.255v0c-0.13 0.613 0.006 1.09 0.405 1.43 0.401 0.333 1.121 0.621 2.16 0.864v0c1.032 0.241 1.786 0.297 2.261 0.169 0.47-0.137 0.799-0.505 0.987-1.105v0c0.175-0.603 0.369-1.434 0.583-2.492v0l2.064 0.482c-0.022 0.33-0.084 0.71-0.184 1.138-0.107 0.427-0.213 0.809-0.319 1.147v0c-0.383 1.287-0.999 2.135-1.848 2.547-0.848 0.404-2.151 0.401-3.91-0.01zM99.862-3.554v0l5.93 1.386c0.195-0.749 0.373-1.467 0.535-2.155 0.159-0.682 0.246-1.158 0.261-1.428v0c0.083-0.562-0.061-1.014-0.433-1.354-0.38-0.335-1.051-0.615-2.012-0.84v0c-1.078-0.252-1.871-0.314-2.38-0.186-0.517 0.133-0.847 0.473-0.988 1.022v0c-0.183 0.635-0.353 1.246-0.51 1.832-0.149 0.581-0.284 1.156-0.403 1.723z" opacity="1" transform="matrix(1,0,0,1,0,0)" fill="black" class="wordmark-text-0" id="SvgjsPath3308"></path></svg></g></svg></g><g transform="matrix(1,0,0,1,118.31980799999998,91.40945787135918)"><svg viewBox="0 0 158.88038400000002 23.942855589997528" height="23.942855589997528" width="158.88038400000002"><g transform="matrix(1,0,0,1,0,0)"><svg width="158.88038400000002" viewBox="1.81 -38.57 295.8 44.58" height="23.942855589997528" data-palette-color="url(#17e228b1-5783-400c-910f-03c0de99ae1d)"><path d="M10.23-13.38L10.23-13.38Q11.74-13.04 13.26-12.84 14.77-12.65 16.31-12.65L16.31-12.65Q17.92-12.65 19.3-12.95 20.68-13.26 21.69-13.98 22.71-14.7 23.29-15.89 23.88-17.09 23.88-18.87L23.88-18.87Q23.88-20.31 23.49-21.51 23.1-22.71 22.33-23.56 21.56-24.41 20.43-24.89 19.31-25.37 17.82-25.37L17.82-25.37Q16.43-25.37 15.32-24.85 14.21-24.34 13.37-23.47 12.52-22.61 11.93-21.46 11.33-20.31 10.94-19.07 10.55-17.82 10.38-16.55 10.21-15.28 10.21-14.16L10.21-14.16Q10.21-13.96 10.21-13.77 10.21-13.57 10.23-13.38ZM30.57-18.95L30.57-18.95Q30.57-17.21 30-15.86 29.44-14.5 28.48-13.48 27.51-12.45 26.25-11.74 24.98-11.04 23.54-10.58 22.09-10.13 20.57-9.94 19.04-9.74 17.6-9.74L17.6-9.74Q15.77-9.74 13.99-10 12.21-10.25 10.47-10.82L10.47-10.82Q10.74-9.2 11.33-7.75 11.91-6.3 12.89-5.21 13.87-4.13 15.3-3.49 16.72-2.86 18.68-2.86L18.68-2.86Q19.97-2.86 21.14-3.25 22.31-3.64 23.29-4.35 24.27-5.05 25.01-6.03 25.76-7.01 26.22-8.2L26.22-8.2 29.79-6.88Q28.98-4.96 27.58-3.55 26.17-2.15 24.4-1.23 22.63-0.32 20.64 0.12 18.65 0.56 16.7 0.56L16.7 0.56Q13.48 0.56 10.74-0.52 8.01-1.61 6.03-3.56 4.05-5.52 2.93-8.23 1.81-10.94 1.81-14.16L1.81-14.16Q1.81-17.38 2.93-20.09 4.05-22.8 6.03-24.76 8.01-26.71 10.74-27.8 13.48-28.88 16.7-28.88L16.7-28.88Q18.26-28.88 19.9-28.66 21.53-28.44 23.07-27.97 24.61-27.49 25.98-26.73 27.34-25.98 28.36-24.87 29.37-23.75 29.97-22.29 30.57-20.83 30.57-18.95ZM61.33-28.2L50.22 0 42.8 0 32.54-28.2 40.79-28.2 48.31-5.74 55.61-28.2 61.33-28.2ZM71.04-13.38L71.04-13.38Q72.55-13.04 74.07-12.84 75.58-12.65 77.12-12.65L77.12-12.65Q78.73-12.65 80.11-12.95 81.49-13.26 82.5-13.98 83.52-14.7 84.1-15.89 84.69-17.09 84.69-18.87L84.69-18.87Q84.69-20.31 84.3-21.51 83.91-22.71 83.14-23.56 82.37-24.41 81.25-24.89 80.12-25.37 78.63-25.37L78.63-25.37Q77.24-25.37 76.13-24.85 75.02-24.34 74.18-23.47 73.33-22.61 72.74-21.46 72.14-20.31 71.75-19.07 71.36-17.82 71.19-16.55 71.02-15.28 71.02-14.16L71.02-14.16Q71.02-13.96 71.02-13.77 71.02-13.57 71.04-13.38ZM91.38-18.95L91.38-18.95Q91.38-17.21 90.82-15.86 90.25-14.5 89.29-13.48 88.33-12.45 87.06-11.74 85.79-11.04 84.35-10.58 82.91-10.13 81.38-9.94 79.85-9.74 78.41-9.74L78.41-9.74Q76.58-9.74 74.8-10 73.02-10.25 71.28-10.82L71.28-10.82Q71.55-9.2 72.14-7.75 72.72-6.3 73.7-5.21 74.68-4.13 76.11-3.49 77.53-2.86 79.49-2.86L79.49-2.86Q80.78-2.86 81.95-3.25 83.12-3.64 84.1-4.35 85.08-5.05 85.82-6.03 86.57-7.01 87.03-8.2L87.03-8.2 90.6-6.88Q89.79-4.96 88.39-3.55 86.98-2.15 85.21-1.23 83.44-0.32 81.45 0.12 79.46 0.56 77.51 0.56L77.51 0.56Q74.29 0.56 71.55-0.52 68.82-1.61 66.84-3.56 64.86-5.52 63.74-8.23 62.62-10.94 62.62-14.16L62.62-14.16Q62.62-17.38 63.74-20.09 64.86-22.8 66.84-24.76 68.82-26.71 71.55-27.8 74.29-28.88 77.51-28.88L77.51-28.88Q79.07-28.88 80.71-28.66 82.34-28.44 83.88-27.97 85.42-27.49 86.79-26.73 88.15-25.98 89.17-24.87 90.18-23.75 90.78-22.29 91.38-20.83 91.38-18.95ZM125.36-16.16L125.36-16.16Q125.36-13.31 124.66-10.21 123.97-7.1 122.72-4.13 121.48-1.15 119.74 1.48 118.01 4.1 115.93 6.01L115.93 6.01 112.83 4.32Q113.49 3.1 114.08 1.59 114.67 0.07 115.14-1.62 115.62-3.32 116-5.13 116.37-6.93 116.63-8.7 116.89-10.47 117.02-12.15 117.16-13.82 117.16-15.26L117.16-15.26Q117.16-16.21 117.08-17.3 117.01-18.38 116.78-19.47 116.55-20.56 116.15-21.56 115.76-22.56 115.12-23.32 114.47-24.07 113.55-24.54 112.64-25 111.39-25L111.39-25Q110.17-25 109.22-24.45 108.27-23.9 107.54-23.01 106.8-22.12 106.28-20.97 105.75-19.82 105.42-18.62 105.1-17.41 104.95-16.24 104.8-15.06 104.8-14.14L104.8-14.14 104.8 0 96.53 0 96.53-28.2 99.7-28.2 103.48-21.63Q104.17-23.27 105.19-24.61 106.22-25.95 107.51-26.9 108.81-27.86 110.38-28.37 111.96-28.88 113.79-28.88L113.79-28.88Q116.72-28.88 118.89-27.93 121.06-26.98 122.5-25.28 123.94-23.58 124.65-21.25 125.36-18.92 125.36-16.16ZM137.59-13.38L137.59-13.38Q139.1-13.04 140.62-12.84 142.13-12.65 143.67-12.65L143.67-12.65Q145.28-12.65 146.66-12.95 148.04-13.26 149.05-13.98 150.06-14.7 150.65-15.89 151.24-17.09 151.24-18.87L151.24-18.87Q151.24-20.31 150.84-21.51 150.45-22.71 149.68-23.56 148.92-24.41 147.79-24.89 146.67-25.37 145.18-25.37L145.18-25.37Q143.79-25.37 142.68-24.85 141.57-24.34 140.72-23.47 139.88-22.61 139.28-21.46 138.69-20.31 138.3-19.07 137.91-17.82 137.73-16.55 137.56-15.28 137.56-14.16L137.56-14.16Q137.56-13.96 137.56-13.77 137.56-13.57 137.59-13.38ZM157.92-18.95L157.92-18.95Q157.92-17.21 157.36-15.86 156.8-14.5 155.84-13.48 154.87-12.45 153.6-11.74 152.33-11.04 150.89-10.58 149.45-10.13 147.93-9.94 146.4-9.74 144.96-9.74L144.96-9.74Q143.13-9.74 141.35-10 139.57-10.25 137.83-10.82L137.83-10.82Q138.1-9.2 138.69-7.75 139.27-6.3 140.25-5.21 141.23-4.13 142.65-3.49 144.08-2.86 146.03-2.86L146.03-2.86Q147.33-2.86 148.5-3.25 149.67-3.64 150.65-4.35 151.63-5.05 152.37-6.03 153.12-7.01 153.58-8.2L153.58-8.2 157.14-6.88Q156.34-4.96 154.93-3.55 153.53-2.15 151.76-1.23 149.99-0.32 148 0.12 146.01 0.56 144.06 0.56L144.06 0.56Q140.83 0.56 138.1-0.52 135.37-1.61 133.39-3.56 131.41-5.52 130.29-8.23 129.16-10.94 129.16-14.16L129.16-14.16Q129.16-17.38 130.29-20.09 131.41-22.8 133.39-24.76 135.37-26.71 138.1-27.8 140.83-28.88 144.06-28.88L144.06-28.88Q145.62-28.88 147.26-28.66 148.89-28.44 150.43-27.97 151.97-27.49 153.33-26.73 154.7-25.98 155.72-24.87 156.73-23.75 157.33-22.29 157.92-20.83 157.92-18.95ZM206.7-16.46L206.7-16.46Q206.7-13.55 206.02-10.4 205.33-7.25 204.1-4.26 202.87-1.27 201.13 1.39 199.4 4.05 197.28 6.01L197.28 6.01 194.18 4.32Q194.88 3.05 195.47 1.46 196.06-0.12 196.55-1.88 197.03-3.64 197.4-5.49 197.77-7.35 198.02-9.19 198.28-11.04 198.4-12.77 198.52-14.5 198.52-16.02L198.52-16.02Q198.52-16.87 198.47-17.87 198.43-18.87 198.27-19.87 198.11-20.87 197.79-21.79 197.47-22.71 196.92-23.43 196.37-24.15 195.56-24.57 194.74-25 193.59-25L193.59-25Q192.47-25 191.67-24.4 190.88-23.8 190.32-22.85 189.76-21.9 189.43-20.7 189.1-19.51 188.93-18.3 188.76-17.09 188.7-15.99 188.63-14.89 188.63-14.14L188.63-14.14 188.63 0 180.41 0 180.41-13.13Q180.41-13.99 180.43-15.2 180.46-16.41 180.37-17.72 180.29-19.04 180.05-20.35 179.82-21.66 179.32-22.68 178.82-23.71 177.97-24.35 177.11-25 175.82-25L175.82-25Q174.72-25 173.97-24.39 173.23-23.78 172.73-22.81 172.23-21.85 171.95-20.64 171.67-19.43 171.53-18.23 171.4-17.02 171.37-15.93 171.35-14.84 171.35-14.14L171.35-14.14 171.35 0 163.07 0 163.07-28.2 166.25-28.2 169.27-21.63Q170.3-25.05 172.51-26.97 174.72-28.88 178.38-28.88L178.38-28.88Q181.68-28.88 183.85-27.51 186.02-26.15 187.27-23.07L187.27-23.07Q187.98-24.41 188.84-25.49 189.71-26.56 190.77-27.32 191.83-28.08 193.13-28.48 194.42-28.88 195.98-28.88L195.98-28.88Q198.86-28.88 200.9-27.94 202.94-27 204.24-25.34 205.53-23.68 206.12-21.4 206.7-19.12 206.7-16.46ZM218.98-13.38L218.98-13.38Q220.49-13.04 222.01-12.84 223.52-12.65 225.06-12.65L225.06-12.65Q226.67-12.65 228.05-12.95 229.43-13.26 230.44-13.98 231.45-14.7 232.04-15.89 232.63-17.09 232.63-18.87L232.63-18.87Q232.63-20.31 232.24-21.51 231.85-22.71 231.08-23.56 230.31-24.41 229.18-24.89 228.06-25.37 226.57-25.37L226.57-25.37Q225.18-25.37 224.07-24.85 222.96-24.34 222.12-23.47 221.27-22.61 220.68-21.46 220.08-20.31 219.69-19.07 219.3-17.82 219.13-16.55 218.95-15.28 218.95-14.16L218.95-14.16Q218.95-13.96 218.95-13.77 218.95-13.57 218.98-13.38ZM239.32-18.95L239.32-18.95Q239.32-17.21 238.75-15.86 238.19-14.5 237.23-13.48 236.26-12.45 234.99-11.74 233.73-11.04 232.28-10.58 230.84-10.13 229.32-9.94 227.79-9.74 226.35-9.74L226.35-9.74Q224.52-9.74 222.74-10 220.96-10.25 219.22-10.82L219.22-10.82Q219.49-9.2 220.08-7.75 220.66-6.3 221.64-5.21 222.62-4.13 224.05-3.49 225.47-2.86 227.43-2.86L227.43-2.86Q228.72-2.86 229.89-3.25 231.06-3.64 232.04-4.35 233.02-5.05 233.76-6.03 234.51-7.01 234.97-8.2L234.97-8.2 238.53-6.88Q237.73-4.96 236.33-3.55 234.92-2.15 233.15-1.23 231.38-0.32 229.39 0.12 227.4 0.56 225.45 0.56L225.45 0.56Q222.23 0.56 219.49-0.52 216.76-1.61 214.78-3.56 212.8-5.52 211.68-8.23 210.56-10.94 210.56-14.16L210.56-14.16Q210.56-17.38 211.68-20.09 212.8-22.8 214.78-24.76 216.76-26.71 219.49-27.8 222.23-28.88 225.45-28.88L225.45-28.88Q227.01-28.88 228.65-28.66 230.28-28.44 231.82-27.97 233.36-27.49 234.73-26.73 236.09-25.98 237.11-24.87 238.12-23.75 238.72-22.29 239.32-20.83 239.32-18.95ZM273.3-16.16L273.3-16.16Q273.3-13.31 272.6-10.21 271.91-7.1 270.66-4.13 269.42-1.15 267.68 1.48 265.95 4.1 263.87 6.01L263.87 6.01 260.77 4.32Q261.43 3.1 262.02 1.59 262.6 0.07 263.08-1.62 263.56-3.32 263.94-5.13 264.31-6.93 264.57-8.7 264.83-10.47 264.96-12.15 265.09-13.82 265.09-15.26L265.09-15.26Q265.09-16.21 265.02-17.3 264.95-18.38 264.72-19.47 264.48-20.56 264.09-21.56 263.7-22.56 263.06-23.32 262.41-24.07 261.49-24.54 260.58-25 259.33-25L259.33-25Q258.11-25 257.16-24.45 256.21-23.9 255.48-23.01 254.74-22.12 254.22-20.97 253.69-19.82 253.36-18.62 253.03-17.41 252.89-16.24 252.74-15.06 252.74-14.14L252.74-14.14 252.74 0 244.46 0 244.46-28.2 247.64-28.2 251.42-21.63Q252.11-23.27 253.13-24.61 254.16-25.95 255.45-26.9 256.75-27.86 258.32-28.37 259.89-28.88 261.73-28.88L261.73-28.88Q264.66-28.88 266.83-27.93 269-26.98 270.44-25.28 271.88-23.58 272.59-21.25 273.3-18.92 273.3-16.16ZM289.07-24.93L289.07 0 280.79 0 280.79-24.93 275.66-24.93 275.66-28.2 280.79-28.2 280.79-38.57 289.07-38.57 289.07-28.2 297.61-28.2 297.61-24.93 289.07-24.93Z" opacity="1" transform="matrix(1,0,0,1,0,0)" fill="white" class="slogan-text-1" id="SvgjsPath3307"></path></svg></g></svg></g></svg></g></svg></g><g transform="matrix(1,0,0,1,104.41658929107619,0)"><svg viewBox="0 0 186.6868214178476 186.64004318047512" height="186.64004318047512" width="186.6868214178476"><g><svg xmlns="http://www.w3.org/2000/svg" xmlns:xlink="http://www.w3.org/1999/xlink" version="1.1" x="0" y="0" viewBox="0.987969594543505 1 48.01203040545649 48" enable-background="new 0 0 50 50" xml:space="preserve" height="186.64004318047512" width="186.6868214178476" class="icon-icon-0" data-fill-palette-color="accent" id="SvgjsSvg3306"><g fill="black"><path d="M23.9 22.7C22.5 22.4 21 22.8 20 23.9 18.3 25.6 18.3 28.4 20 30 21.7 31.7 24.5 31.7 26.1 30 27.2 28.9 27.6 27.4 27.3 26 27.6 25.9 38.5 14.9 38.7 14.7L35.2 11.2C35 11.5 24 22.4 23.9 22.7" fill="black"></path><path d="M48.7 8.7L47.9 8 48.5 7.4C48.9 7 48.9 6.4 48.5 6L44 1.5C43.6 1.1 43 1.1 42.6 1.5L42 2.1 41.2 1.3C40.8 0.9 40.2 0.9 39.8 1.3S39.4 2.3 39.8 2.7L40.6 3.5 38.2 5.9 37.4 5.1C37 4.7 36.4 4.7 36 5.1S35.6 6.1 36 6.5L36.8 7.3 36.2 7.9C35.8 8.2 35.8 8.9 36.2 9.3L40.7 13.8C41.1 14.2 41.7 14.2 42.1 13.8L42.7 13.2 43.5 14C43.9 14.4 44.5 14.4 44.9 14S45.3 13 44.9 12.6L44.1 11.8 46.5 9.4 47.3 10.2C47.7 10.6 48.3 10.6 48.7 10.2S49.1 9.1 48.7 8.7" fill="black"></path><path d="M29.4 26.9C29.4 28.6 28.8 30.2 27.5 31.4 25 33.9 21 33.9 18.5 31.4 16 29 16 24.9 18.5 22.4 19.7 21.2 21.2 20.5 23 20.5L26.4 17.1C24.9 16.4 23.4 16 22 16 18.7 16 16.8 17.8 15.6 20.9 15 22.3 13.8 23.2 12.2 23.4 8.5 23.9 5.1 25.3 3.2 27.2-0.6 31.1 0.6 38.6 6 44 9.1 47.1 13.2 49 16.8 49 19.2 49 21.2 48.2 22.7 46.7 24.6 44.8 26 41.4 26.5 37.7 26.7 36.2 27.7 34.9 29 34.3 34.1 32.2 34.9 27.9 32.7 23.4zM17.5 39.8C17.3 40 17.1 40.1 16.8 40.1S16.3 40 16.1 39.8L10.2 33.9C9.8 33.5 9.8 32.9 10.2 32.5S11.2 32.1 11.6 32.5L17.5 38.4C17.9 38.7 17.9 39.4 17.5 39.8" fill="black"></path></g></svg></g></svg></g><g></g></svg></g><defs><mask></mask></defs></svg><rect width="387.3120487588574" height="327.2" fill="black" stroke="none" visibility="hidden"></rect></g></mask><linearGradient x1="0" x2="1" y1="0.5" y2="0.5" id="17e228b1-5783-400c-910f-03c0de99ae1d"><stop stop-color="#f00b51" offset="0"></stop><stop stop-color="#730062" offset="1"></stop></linearGradient><rect width="387.31322633004487" height="327.2" fill="url(#17e228b1-5783-400c-910f-03c0de99ae1d)" mask="url(#b4bc1742-4c8c-445b-acbc-daae97bc9d67)" data-fill-palette-color="secondary"></rect><mask id="95227695-61c5-4a5a-8cae-c9b726b1a671"><g id="SvgjsG3322"><svg viewBox="0 0 387.3120487588574 327.2" height="327.2" width="387.3120487588574"><g><svg viewBox="0 0 395.52 334.1340513797802" height="327.2" width="387.3120487588574"><g transform="matrix(1,0,0,1,0,218.7817379184235)"><svg viewBox="0 0 395.52 115.3523134613567" height="115.3523134613567" width="395.52"><g id="SvgjsG3321"><svg viewBox="0 0 395.52 115.3523134613567" height="115.3523134613567" width="395.52" id="SvgjsSvg3320"><g><svg viewBox="0 0 395.52 82.525628479997" height="82.525628479997" width="395.52"><g transform="matrix(1,0,0,1,0,0)"><svg width="395.52" viewBox="0.2391025771547694 -15.554269548659338 108.47729357932673 22.63385704865934" height="82.525628479997" data-palette-color="#ffffff"><path d="M8.481 6.666v0c-1.8 0.443-3.147 0.449-4.043 0.017-0.891-0.44-1.542-1.368-1.953-2.783v0c-0.267-0.806-0.533-1.705-0.798-2.698-0.273-0.997-0.522-2.007-0.747-3.029-0.229-1.015-0.414-1.944-0.553-2.789v0c-0.296-1.451-0.148-2.579 0.443-3.384 0.593-0.798 1.786-1.418 3.579-1.86v0c1.812-0.447 3.154-0.451 4.024-0.013 0.878 0.443 1.523 1.376 1.936 2.798v0c0.266 0.8 0.531 1.696 0.796 2.688 0.273 0.997 0.521 2.004 0.744 3.019 0.229 1.015 0.415 1.951 0.558 2.808v0c0.293 1.438 0.153 2.558-0.419 3.358-0.565 0.798-1.754 1.421-3.567 1.868zM8.024 4.811v0c1.016-0.25 1.708-0.551 2.074-0.902 0.373-0.353 0.505-0.821 0.396-1.406v0c-0.314-1.749-0.654-3.365-1.02-4.847-0.365-1.482-0.815-3.071-1.349-4.765v0c-0.176-0.575-0.505-0.933-0.986-1.076-0.48-0.136-1.237-0.076-2.273 0.179v0c-1.042 0.257-1.744 0.557-2.106 0.9-0.367 0.351-0.494 0.822-0.383 1.413v0c0.321 1.747 0.664 3.365 1.031 4.854 0.359 1.484 0.804 3.07 1.337 4.758v0c0.161 0.571 0.496 0.925 1.003 1.061 0.507 0.136 1.266 0.08 2.276-0.169zM30.282-8.416v0l-2.127 0.315c-0.011-0.396-0.058-0.847-0.139-1.354-0.075-0.508-0.134-0.903-0.176-1.187v0c-0.101-0.592-0.396-0.966-0.884-1.123-0.488-0.157-1.25-0.159-2.285-0.005v0c-1.062 0.157-1.8 0.381-2.216 0.671-0.415 0.291-0.586 0.734-0.511 1.33v0c0.182 1.779 0.386 3.43 0.612 4.953 0.226 1.53 0.509 3.166 0.848 4.909v0c0.105 0.618 0.399 1.012 0.883 1.184 0.483 0.164 1.248 0.169 2.296 0.014v0c1.035-0.153 1.767-0.379 2.195-0.679 0.426-0.306 0.6-0.77 0.522-1.391v0c-0.045-0.303-0.1-0.673-0.164-1.108-0.058-0.436-0.148-0.908-0.27-1.416v0l2.126-0.315c0.107 0.314 0.19 0.69 0.248 1.126 0.058 0.436 0.103 0.831 0.134 1.183v0c0.13 1.335-0.144 2.353-0.821 3.053-0.673 0.693-1.902 1.171-3.69 1.436v0c-1.8 0.266-3.136 0.168-4.007-0.297-0.865-0.472-1.425-1.366-1.68-2.683v0c-0.17-0.831-0.345-1.806-0.524-2.924-0.187-1.125-0.354-2.256-0.502-3.393-0.155-1.136-0.271-2.13-0.351-2.981v0c-0.143-1.374 0.138-2.413 0.843-3.117 0.705-0.697 1.955-1.179 3.749-1.445v0c1.774-0.263 3.096-0.165 3.966 0.293 0.863 0.459 1.405 1.342 1.625 2.651v0c0.07 0.333 0.14 0.717 0.211 1.151 0.071 0.434 0.101 0.817 0.089 1.149zM45.302 1.462v0c-1.877 0.101-3.231-0.121-4.061-0.664-0.831-0.55-1.312-1.492-1.443-2.827v0c-0.092-0.843-0.175-1.83-0.249-2.961-0.081-1.137-0.142-2.279-0.183-3.425-0.048-1.146-0.071-2.146-0.071-3.001v0c-0.014-1.381 0.376-2.39 1.17-3.026 0.787-0.63 2.097-0.993 3.927-1.092v0c1.724-0.092 2.988 0.13 3.792 0.668 0.803 0.538 1.28 1.467 1.431 2.788v0c0.048 0.398 0.108 1.089 0.181 2.073 0.08 0.99 0.103 2.044 0.069 3.161v0l-8.159 0.437c0.038 0.719 0.081 1.448 0.128 2.186 0.053 0.732 0.117 1.496 0.192 2.293v0c0.047 0.625 0.31 1.045 0.789 1.26 0.478 0.208 1.25 0.284 2.315 0.226v0c1.058-0.057 1.798-0.213 2.218-0.469 0.413-0.262 0.626-0.708 0.64-1.336v0c0-0.628-0.046-1.48-0.137-2.557v0l2.117-0.113c0.071 0.323 0.118 0.705 0.141 1.144 0.017 0.44 0.021 0.837 0.014 1.191v0c-0.008 1.342-0.363 2.329-1.063 2.961-0.701 0.625-1.953 0.986-3.758 1.083zM41.61-8.215v0l6.081-0.325c-0.021-0.773-0.051-1.513-0.089-2.219-0.037-0.699-0.087-1.18-0.147-1.444v0c-0.077-0.563-0.342-0.956-0.794-1.179-0.459-0.216-1.181-0.297-2.166-0.245v0c-1.105 0.059-1.884 0.221-2.338 0.486-0.459 0.272-0.681 0.691-0.664 1.257v0c0.002 0.661 0.009 1.295 0.022 1.902 0.019 0.6 0.05 1.189 0.095 1.767zM62.557 1.417v0c-1.386-0.056-2.4-0.37-3.044-0.943-0.644-0.573-1-1.441-1.066-2.605v0c-0.004-0.227-0.008-0.454-0.013-0.681-0.011-0.227 0.001-0.45 0.037-0.669v0c0.121-1.009 0.471-1.846 1.052-2.51 0.587-0.664 1.671-1.247 3.253-1.751v0c0.642-0.208 1.32-0.387 2.033-0.539 0.713-0.151 1.42-0.3 2.119-0.445v0l0.127-3.147c0.022-0.56-0.171-0.981-0.58-1.265-0.409-0.283-1.136-0.446-2.182-0.488v0c-0.913-0.037-1.61 0.049-2.092 0.256-0.482 0.207-0.755 0.61-0.819 1.208v0c-0.038 0.285-0.068 0.691-0.089 1.218-0.021 0.533-0.026 0.98-0.014 1.34v0l-2.138-0.086c-0.009-0.281-0.014-0.651-0.015-1.111-0.008-0.454 0.011-0.857 0.058-1.209v0c0.113-1.317 0.581-2.248 1.404-2.796 0.823-0.554 2.11-0.796 3.862-0.725v0c1.832 0.074 3.088 0.441 3.769 1.102 0.687 0.668 1.008 1.729 0.963 3.182v0l-0.512 12.719-2.148-0.086 0.063-1.569-0.48-0.019c-0.309 0.555-0.733 0.975-1.271 1.26-0.538 0.279-1.297 0.398-2.277 0.359zM63.181-0.41v0c1.632 0.066 2.781-0.375 3.446-1.322v0l0.208-5.166c-0.551 0.091-1.116 0.202-1.695 0.332-0.579 0.13-1.26 0.31-2.043 0.538v0c-0.933 0.303-1.562 0.671-1.886 1.105-0.324 0.427-0.521 0.936-0.592 1.528v0c0 0.173-0.001 0.36-0.002 0.56-0.001 0.193 0.007 0.401 0.025 0.622v0c0.051 0.549 0.304 0.98 0.758 1.291 0.455 0.312 1.048 0.482 1.781 0.512zM81.256-10.641l-1.787 13.291-2.181-0.294 2.213-16.452 2.181 0.294-0.207 1.536 0.525 0.071c0.426-0.515 0.943-0.886 1.552-1.113 0.616-0.227 1.356-0.282 2.222-0.166v0c1.275 0.172 2.186 0.577 2.733 1.215 0.539 0.644 0.721 1.617 0.546 2.919v0l-1.755 13.043-2.16-0.291 1.778-13.221c0.076-0.568-0.047-1.002-0.37-1.301-0.316-0.298-0.871-0.501-1.664-0.607v0c-0.786-0.106-1.498-0.064-2.136 0.126-0.631 0.191-1.128 0.508-1.49 0.95zM100.706 6.769v0c-1.831-0.428-3.069-1.018-3.715-1.772-0.644-0.76-0.843-1.799-0.596-3.117v0c0.147-0.835 0.343-1.806 0.588-2.913 0.24-1.115 0.5-2.228 0.78-3.34 0.274-1.114 0.531-2.081 0.77-2.901v0c0.372-1.33 1.029-2.19 1.969-2.579 0.932-0.385 2.291-0.369 4.076 0.048v0c1.681 0.393 2.833 0.96 3.454 1.7 0.621 0.741 0.82 1.766 0.595 3.077v0c-0.065 0.396-0.2 1.076-0.405 2.041-0.2 0.973-0.472 1.991-0.816 3.054v0l-7.956-1.858c-0.164 0.701-0.327 1.413-0.488 2.135-0.154 0.717-0.306 1.469-0.455 2.255v0c-0.13 0.613 0.006 1.09 0.405 1.43 0.401 0.333 1.121 0.621 2.16 0.864v0c1.032 0.241 1.786 0.297 2.261 0.169 0.47-0.137 0.799-0.505 0.987-1.105v0c0.175-0.603 0.369-1.434 0.583-2.492v0l2.064 0.482c-0.022 0.33-0.084 0.71-0.184 1.138-0.107 0.427-0.213 0.809-0.319 1.147v0c-0.383 1.287-0.999 2.135-1.848 2.547-0.848 0.404-2.151 0.401-3.91-0.01zM99.862-3.554v0l5.93 1.386c0.195-0.749 0.373-1.467 0.535-2.155 0.159-0.682 0.246-1.158 0.261-1.428v0c0.083-0.562-0.061-1.014-0.433-1.354-0.38-0.335-1.051-0.615-2.012-0.84v0c-1.078-0.252-1.871-0.314-2.38-0.186-0.517 0.133-0.847 0.473-0.988 1.022v0c-0.183 0.635-0.353 1.246-0.51 1.832-0.149 0.581-0.284 1.156-0.403 1.723z" opacity="1" transform="matrix(1,0,0,1,0,0)" fill="black" class="wordmark-text-0" id="SvgjsPath3319"></path></svg></g></svg></g><g transform="matrix(1,0,0,1,118.31980799999998,91.40945787135918)"><svg viewBox="0 0 158.88038400000002 23.942855589997528" height="23.942855589997528" width="158.88038400000002"><g transform="matrix(1,0,0,1,0,0)"><svg width="158.88038400000002" viewBox="1.81 -38.57 295.8 44.58" height="23.942855589997528" data-palette-color="url(#17e228b1-5783-400c-910f-03c0de99ae1d)"></svg></g></svg></g></svg></g></svg></g><g transform="matrix(1,0,0,1,104.41658929107619,0)"><svg viewBox="0 0 186.6868214178476 186.64004318047512" height="186.64004318047512" width="186.6868214178476"><g><svg xmlns="http://www.w3.org/2000/svg" xmlns:xlink="http://www.w3.org/1999/xlink" version="1.1" x="0" y="0" viewBox="0.987969594543505 1 48.01203040545649 48" enable-background="new 0 0 50 50" xml:space="preserve" height="186.64004318047512" width="186.6868214178476" class="icon-icon-0" data-fill-palette-color="accent" id="SvgjsSvg3318"><g fill="white"><path d="M23.9 22.7C22.5 22.4 21 22.8 20 23.9 18.3 25.6 18.3 28.4 20 30 21.7 31.7 24.5 31.7 26.1 30 27.2 28.9 27.6 27.4 27.3 26 27.6 25.9 38.5 14.9 38.7 14.7L35.2 11.2C35 11.5 24 22.4 23.9 22.7" fill="white"></path><path d="M48.7 8.7L47.9 8 48.5 7.4C48.9 7 48.9 6.4 48.5 6L44 1.5C43.6 1.1 43 1.1 42.6 1.5L42 2.1 41.2 1.3C40.8 0.9 40.2 0.9 39.8 1.3S39.4 2.3 39.8 2.7L40.6 3.5 38.2 5.9 37.4 5.1C37 4.7 36.4 4.7 36 5.1S35.6 6.1 36 6.5L36.8 7.3 36.2 7.9C35.8 8.2 35.8 8.9 36.2 9.3L40.7 13.8C41.1 14.2 41.7 14.2 42.1 13.8L42.7 13.2 43.5 14C43.9 14.4 44.5 14.4 44.9 14S45.3 13 44.9 12.6L44.1 11.8 46.5 9.4 47.3 10.2C47.7 10.6 48.3 10.6 48.7 10.2S49.1 9.1 48.7 8.7" fill="white"></path><path d="M29.4 26.9C29.4 28.6 28.8 30.2 27.5 31.4 25 33.9 21 33.9 18.5 31.4 16 29 16 24.9 18.5 22.4 19.7 21.2 21.2 20.5 23 20.5L26.4 17.1C24.9 16.4 23.4 16 22 16 18.7 16 16.8 17.8 15.6 20.9 15 22.3 13.8 23.2 12.2 23.4 8.5 23.9 5.1 25.3 3.2 27.2-0.6 31.1 0.6 38.6 6 44 9.1 47.1 13.2 49 16.8 49 19.2 49 21.2 48.2 22.7 46.7 24.6 44.8 26 41.4 26.5 37.7 26.7 36.2 27.7 34.9 29 34.3 34.1 32.2 34.9 27.9 32.7 23.4zM17.5 39.8C17.3 40 17.1 40.1 16.8 40.1S16.3 40 16.1 39.8L10.2 33.9C9.8 33.5 9.8 32.9 10.2 32.5S11.2 32.1 11.6 32.5L17.5 38.4C17.9 38.7 17.9 39.4 17.5 39.8" fill="white"></path></g></svg></g></svg></g><g></g></svg></g><defs><mask></mask></defs><mask><g id="SvgjsG3317"><svg viewBox="0 0 387.3120487588574 327.2" height="327.2" width="387.3120487588574"><g><svg viewBox="0 0 395.52 334.1340513797802" height="327.2" width="387.3120487588574"><g transform="matrix(1,0,0,1,0,218.7817379184235)"><svg viewBox="0 0 395.52 115.3523134613567" height="115.3523134613567" width="395.52"><g id="SvgjsG3316"><svg viewBox="0 0 395.52 115.3523134613567" height="115.3523134613567" width="395.52" id="SvgjsSvg3315"><g><svg viewBox="0 0 395.52 82.525628479997" height="82.525628479997" width="395.52"><g transform="matrix(1,0,0,1,0,0)"><svg width="395.52" viewBox="0.2391025771547694 -15.554269548659338 108.47729357932673 22.63385704865934" height="82.525628479997" data-palette-color="#ffffff"><path d="M8.481 6.666v0c-1.8 0.443-3.147 0.449-4.043 0.017-0.891-0.44-1.542-1.368-1.953-2.783v0c-0.267-0.806-0.533-1.705-0.798-2.698-0.273-0.997-0.522-2.007-0.747-3.029-0.229-1.015-0.414-1.944-0.553-2.789v0c-0.296-1.451-0.148-2.579 0.443-3.384 0.593-0.798 1.786-1.418 3.579-1.86v0c1.812-0.447 3.154-0.451 4.024-0.013 0.878 0.443 1.523 1.376 1.936 2.798v0c0.266 0.8 0.531 1.696 0.796 2.688 0.273 0.997 0.521 2.004 0.744 3.019 0.229 1.015 0.415 1.951 0.558 2.808v0c0.293 1.438 0.153 2.558-0.419 3.358-0.565 0.798-1.754 1.421-3.567 1.868zM8.024 4.811v0c1.016-0.25 1.708-0.551 2.074-0.902 0.373-0.353 0.505-0.821 0.396-1.406v0c-0.314-1.749-0.654-3.365-1.02-4.847-0.365-1.482-0.815-3.071-1.349-4.765v0c-0.176-0.575-0.505-0.933-0.986-1.076-0.48-0.136-1.237-0.076-2.273 0.179v0c-1.042 0.257-1.744 0.557-2.106 0.9-0.367 0.351-0.494 0.822-0.383 1.413v0c0.321 1.747 0.664 3.365 1.031 4.854 0.359 1.484 0.804 3.07 1.337 4.758v0c0.161 0.571 0.496 0.925 1.003 1.061 0.507 0.136 1.266 0.08 2.276-0.169zM30.282-8.416v0l-2.127 0.315c-0.011-0.396-0.058-0.847-0.139-1.354-0.075-0.508-0.134-0.903-0.176-1.187v0c-0.101-0.592-0.396-0.966-0.884-1.123-0.488-0.157-1.25-0.159-2.285-0.005v0c-1.062 0.157-1.8 0.381-2.216 0.671-0.415 0.291-0.586 0.734-0.511 1.33v0c0.182 1.779 0.386 3.43 0.612 4.953 0.226 1.53 0.509 3.166 0.848 4.909v0c0.105 0.618 0.399 1.012 0.883 1.184 0.483 0.164 1.248 0.169 2.296 0.014v0c1.035-0.153 1.767-0.379 2.195-0.679 0.426-0.306 0.6-0.77 0.522-1.391v0c-0.045-0.303-0.1-0.673-0.164-1.108-0.058-0.436-0.148-0.908-0.27-1.416v0l2.126-0.315c0.107 0.314 0.19 0.69 0.248 1.126 0.058 0.436 0.103 0.831 0.134 1.183v0c0.13 1.335-0.144 2.353-0.821 3.053-0.673 0.693-1.902 1.171-3.69 1.436v0c-1.8 0.266-3.136 0.168-4.007-0.297-0.865-0.472-1.425-1.366-1.68-2.683v0c-0.17-0.831-0.345-1.806-0.524-2.924-0.187-1.125-0.354-2.256-0.502-3.393-0.155-1.136-0.271-2.13-0.351-2.981v0c-0.143-1.374 0.138-2.413 0.843-3.117 0.705-0.697 1.955-1.179 3.749-1.445v0c1.774-0.263 3.096-0.165 3.966 0.293 0.863 0.459 1.405 1.342 1.625 2.651v0c0.07 0.333 0.14 0.717 0.211 1.151 0.071 0.434 0.101 0.817 0.089 1.149zM45.302 1.462v0c-1.877 0.101-3.231-0.121-4.061-0.664-0.831-0.55-1.312-1.492-1.443-2.827v0c-0.092-0.843-0.175-1.83-0.249-2.961-0.081-1.137-0.142-2.279-0.183-3.425-0.048-1.146-0.071-2.146-0.071-3.001v0c-0.014-1.381 0.376-2.39 1.17-3.026 0.787-0.63 2.097-0.993 3.927-1.092v0c1.724-0.092 2.988 0.13 3.792 0.668 0.803 0.538 1.28 1.467 1.431 2.788v0c0.048 0.398 0.108 1.089 0.181 2.073 0.08 0.99 0.103 2.044 0.069 3.161v0l-8.159 0.437c0.038 0.719 0.081 1.448 0.128 2.186 0.053 0.732 0.117 1.496 0.192 2.293v0c0.047 0.625 0.31 1.045 0.789 1.26 0.478 0.208 1.25 0.284 2.315 0.226v0c1.058-0.057 1.798-0.213 2.218-0.469 0.413-0.262 0.626-0.708 0.64-1.336v0c0-0.628-0.046-1.48-0.137-2.557v0l2.117-0.113c0.071 0.323 0.118 0.705 0.141 1.144 0.017 0.44 0.021 0.837 0.014 1.191v0c-0.008 1.342-0.363 2.329-1.063 2.961-0.701 0.625-1.953 0.986-3.758 1.083zM41.61-8.215v0l6.081-0.325c-0.021-0.773-0.051-1.513-0.089-2.219-0.037-0.699-0.087-1.18-0.147-1.444v0c-0.077-0.563-0.342-0.956-0.794-1.179-0.459-0.216-1.181-0.297-2.166-0.245v0c-1.105 0.059-1.884 0.221-2.338 0.486-0.459 0.272-0.681 0.691-0.664 1.257v0c0.002 0.661 0.009 1.295 0.022 1.902 0.019 0.6 0.05 1.189 0.095 1.767zM62.557 1.417v0c-1.386-0.056-2.4-0.37-3.044-0.943-0.644-0.573-1-1.441-1.066-2.605v0c-0.004-0.227-0.008-0.454-0.013-0.681-0.011-0.227 0.001-0.45 0.037-0.669v0c0.121-1.009 0.471-1.846 1.052-2.51 0.587-0.664 1.671-1.247 3.253-1.751v0c0.642-0.208 1.32-0.387 2.033-0.539 0.713-0.151 1.42-0.3 2.119-0.445v0l0.127-3.147c0.022-0.56-0.171-0.981-0.58-1.265-0.409-0.283-1.136-0.446-2.182-0.488v0c-0.913-0.037-1.61 0.049-2.092 0.256-0.482 0.207-0.755 0.61-0.819 1.208v0c-0.038 0.285-0.068 0.691-0.089 1.218-0.021 0.533-0.026 0.98-0.014 1.34v0l-2.138-0.086c-0.009-0.281-0.014-0.651-0.015-1.111-0.008-0.454 0.011-0.857 0.058-1.209v0c0.113-1.317 0.581-2.248 1.404-2.796 0.823-0.554 2.11-0.796 3.862-0.725v0c1.832 0.074 3.088 0.441 3.769 1.102 0.687 0.668 1.008 1.729 0.963 3.182v0l-0.512 12.719-2.148-0.086 0.063-1.569-0.48-0.019c-0.309 0.555-0.733 0.975-1.271 1.26-0.538 0.279-1.297 0.398-2.277 0.359zM63.181-0.41v0c1.632 0.066 2.781-0.375 3.446-1.322v0l0.208-5.166c-0.551 0.091-1.116 0.202-1.695 0.332-0.579 0.13-1.26 0.31-2.043 0.538v0c-0.933 0.303-1.562 0.671-1.886 1.105-0.324 0.427-0.521 0.936-0.592 1.528v0c0 0.173-0.001 0.36-0.002 0.56-0.001 0.193 0.007 0.401 0.025 0.622v0c0.051 0.549 0.304 0.98 0.758 1.291 0.455 0.312 1.048 0.482 1.781 0.512zM81.256-10.641l-1.787 13.291-2.181-0.294 2.213-16.452 2.181 0.294-0.207 1.536 0.525 0.071c0.426-0.515 0.943-0.886 1.552-1.113 0.616-0.227 1.356-0.282 2.222-0.166v0c1.275 0.172 2.186 0.577 2.733 1.215 0.539 0.644 0.721 1.617 0.546 2.919v0l-1.755 13.043-2.16-0.291 1.778-13.221c0.076-0.568-0.047-1.002-0.37-1.301-0.316-0.298-0.871-0.501-1.664-0.607v0c-0.786-0.106-1.498-0.064-2.136 0.126-0.631 0.191-1.128 0.508-1.49 0.95zM100.706 6.769v0c-1.831-0.428-3.069-1.018-3.715-1.772-0.644-0.76-0.843-1.799-0.596-3.117v0c0.147-0.835 0.343-1.806 0.588-2.913 0.24-1.115 0.5-2.228 0.78-3.34 0.274-1.114 0.531-2.081 0.77-2.901v0c0.372-1.33 1.029-2.19 1.969-2.579 0.932-0.385 2.291-0.369 4.076 0.048v0c1.681 0.393 2.833 0.96 3.454 1.7 0.621 0.741 0.82 1.766 0.595 3.077v0c-0.065 0.396-0.2 1.076-0.405 2.041-0.2 0.973-0.472 1.991-0.816 3.054v0l-7.956-1.858c-0.164 0.701-0.327 1.413-0.488 2.135-0.154 0.717-0.306 1.469-0.455 2.255v0c-0.13 0.613 0.006 1.09 0.405 1.43 0.401 0.333 1.121 0.621 2.16 0.864v0c1.032 0.241 1.786 0.297 2.261 0.169 0.47-0.137 0.799-0.505 0.987-1.105v0c0.175-0.603 0.369-1.434 0.583-2.492v0l2.064 0.482c-0.022 0.33-0.084 0.71-0.184 1.138-0.107 0.427-0.213 0.809-0.319 1.147v0c-0.383 1.287-0.999 2.135-1.848 2.547-0.848 0.404-2.151 0.401-3.91-0.01zM99.862-3.554v0l5.93 1.386c0.195-0.749 0.373-1.467 0.535-2.155 0.159-0.682 0.246-1.158 0.261-1.428v0c0.083-0.562-0.061-1.014-0.433-1.354-0.38-0.335-1.051-0.615-2.012-0.84v0c-1.078-0.252-1.871-0.314-2.38-0.186-0.517 0.133-0.847 0.473-0.988 1.022v0c-0.183 0.635-0.353 1.246-0.51 1.832-0.149 0.581-0.284 1.156-0.403 1.723z" opacity="1" transform="matrix(1,0,0,1,0,0)" fill="black" class="wordmark-text-0" id="SvgjsPath3314"></path></svg></g></svg></g><g transform="matrix(1,0,0,1,118.31980799999998,91.40945787135918)"><svg viewBox="0 0 158.88038400000002 23.942855589997528" height="23.942855589997528" width="158.88038400000002"><g transform="matrix(1,0,0,1,0,0)"><svg width="158.88038400000002" viewBox="1.81 -38.57 295.8 44.58" height="23.942855589997528" data-palette-color="url(#17e228b1-5783-400c-910f-03c0de99ae1d)"><path d="M10.23-13.38L10.23-13.38Q11.74-13.04 13.26-12.84 14.77-12.65 16.31-12.65L16.31-12.65Q17.92-12.65 19.3-12.95 20.68-13.26 21.69-13.98 22.71-14.7 23.29-15.89 23.88-17.09 23.88-18.87L23.88-18.87Q23.88-20.31 23.49-21.51 23.1-22.71 22.33-23.56 21.56-24.41 20.43-24.89 19.31-25.37 17.82-25.37L17.82-25.37Q16.43-25.37 15.32-24.85 14.21-24.34 13.37-23.47 12.52-22.61 11.93-21.46 11.33-20.31 10.94-19.07 10.55-17.82 10.38-16.55 10.21-15.28 10.21-14.16L10.21-14.16Q10.21-13.96 10.21-13.77 10.21-13.57 10.23-13.38ZM30.57-18.95L30.57-18.95Q30.57-17.21 30-15.86 29.44-14.5 28.48-13.48 27.51-12.45 26.25-11.74 24.98-11.04 23.54-10.58 22.09-10.13 20.57-9.94 19.04-9.74 17.6-9.74L17.6-9.74Q15.77-9.74 13.99-10 12.21-10.25 10.47-10.82L10.47-10.82Q10.74-9.2 11.33-7.75 11.91-6.3 12.89-5.21 13.87-4.13 15.3-3.49 16.72-2.86 18.68-2.86L18.68-2.86Q19.97-2.86 21.14-3.25 22.31-3.64 23.29-4.35 24.27-5.05 25.01-6.03 25.76-7.01 26.22-8.2L26.22-8.2 29.79-6.88Q28.98-4.96 27.58-3.55 26.17-2.15 24.4-1.23 22.63-0.32 20.64 0.12 18.65 0.56 16.7 0.56L16.7 0.56Q13.48 0.56 10.74-0.52 8.01-1.61 6.03-3.56 4.05-5.52 2.93-8.23 1.81-10.94 1.81-14.16L1.81-14.16Q1.81-17.38 2.93-20.09 4.05-22.8 6.03-24.76 8.01-26.71 10.74-27.8 13.48-28.88 16.7-28.88L16.7-28.88Q18.26-28.88 19.9-28.66 21.53-28.44 23.07-27.97 24.61-27.49 25.98-26.73 27.34-25.98 28.36-24.87 29.37-23.75 29.97-22.29 30.57-20.83 30.57-18.95ZM61.33-28.2L50.22 0 42.8 0 32.54-28.2 40.79-28.2 48.31-5.74 55.61-28.2 61.33-28.2ZM71.04-13.38L71.04-13.38Q72.55-13.04 74.07-12.84 75.58-12.65 77.12-12.65L77.12-12.65Q78.73-12.65 80.11-12.95 81.49-13.26 82.5-13.98 83.52-14.7 84.1-15.89 84.69-17.09 84.69-18.87L84.69-18.87Q84.69-20.31 84.3-21.51 83.91-22.71 83.14-23.56 82.37-24.41 81.25-24.89 80.12-25.37 78.63-25.37L78.63-25.37Q77.24-25.37 76.13-24.85 75.02-24.34 74.18-23.47 73.33-22.61 72.74-21.46 72.14-20.31 71.75-19.07 71.36-17.82 71.19-16.55 71.02-15.28 71.02-14.16L71.02-14.16Q71.02-13.96 71.02-13.77 71.02-13.57 71.04-13.38ZM91.38-18.95L91.38-18.95Q91.38-17.21 90.82-15.86 90.25-14.5 89.29-13.48 88.33-12.45 87.06-11.74 85.79-11.04 84.35-10.58 82.91-10.13 81.38-9.94 79.85-9.74 78.41-9.74L78.41-9.74Q76.58-9.74 74.8-10 73.02-10.25 71.28-10.82L71.28-10.82Q71.55-9.2 72.14-7.75 72.72-6.3 73.7-5.21 74.68-4.13 76.11-3.49 77.53-2.86 79.49-2.86L79.49-2.86Q80.78-2.86 81.95-3.25 83.12-3.64 84.1-4.35 85.08-5.05 85.82-6.03 86.57-7.01 87.03-8.2L87.03-8.2 90.6-6.88Q89.79-4.96 88.39-3.55 86.98-2.15 85.21-1.23 83.44-0.32 81.45 0.12 79.46 0.56 77.51 0.56L77.51 0.56Q74.29 0.56 71.55-0.52 68.82-1.61 66.84-3.56 64.86-5.52 63.74-8.23 62.62-10.94 62.62-14.16L62.62-14.16Q62.62-17.38 63.74-20.09 64.86-22.8 66.84-24.76 68.82-26.71 71.55-27.8 74.29-28.88 77.51-28.88L77.51-28.88Q79.07-28.88 80.71-28.66 82.34-28.44 83.88-27.97 85.42-27.49 86.79-26.73 88.15-25.98 89.17-24.87 90.18-23.75 90.78-22.29 91.38-20.83 91.38-18.95ZM125.36-16.16L125.36-16.16Q125.36-13.31 124.66-10.21 123.97-7.1 122.72-4.13 121.48-1.15 119.74 1.48 118.01 4.1 115.93 6.01L115.93 6.01 112.83 4.32Q113.49 3.1 114.08 1.59 114.67 0.07 115.14-1.62 115.62-3.32 116-5.13 116.37-6.93 116.63-8.7 116.89-10.47 117.02-12.15 117.16-13.82 117.16-15.26L117.16-15.26Q117.16-16.21 117.08-17.3 117.01-18.38 116.78-19.47 116.55-20.56 116.15-21.56 115.76-22.56 115.12-23.32 114.47-24.07 113.55-24.54 112.64-25 111.39-25L111.39-25Q110.17-25 109.22-24.45 108.27-23.9 107.54-23.01 106.8-22.12 106.28-20.97 105.75-19.82 105.42-18.62 105.1-17.41 104.95-16.24 104.8-15.06 104.8-14.14L104.8-14.14 104.8 0 96.53 0 96.53-28.2 99.7-28.2 103.48-21.63Q104.17-23.27 105.19-24.61 106.22-25.95 107.51-26.9 108.81-27.86 110.38-28.37 111.96-28.88 113.79-28.88L113.79-28.88Q116.72-28.88 118.89-27.93 121.06-26.98 122.5-25.28 123.94-23.58 124.65-21.25 125.36-18.92 125.36-16.16ZM137.59-13.38L137.59-13.38Q139.1-13.04 140.62-12.84 142.13-12.65 143.67-12.65L143.67-12.65Q145.28-12.65 146.66-12.95 148.04-13.26 149.05-13.98 150.06-14.7 150.65-15.89 151.24-17.09 151.24-18.87L151.24-18.87Q151.24-20.31 150.84-21.51 150.45-22.71 149.68-23.56 148.92-24.41 147.79-24.89 146.67-25.37 145.18-25.37L145.18-25.37Q143.79-25.37 142.68-24.85 141.57-24.34 140.72-23.47 139.88-22.61 139.28-21.46 138.69-20.31 138.3-19.07 137.91-17.82 137.73-16.55 137.56-15.28 137.56-14.16L137.56-14.16Q137.56-13.96 137.56-13.77 137.56-13.57 137.59-13.38ZM157.92-18.95L157.92-18.95Q157.92-17.21 157.36-15.86 156.8-14.5 155.84-13.48 154.87-12.45 153.6-11.74 152.33-11.04 150.89-10.58 149.45-10.13 147.93-9.94 146.4-9.74 144.96-9.74L144.96-9.74Q143.13-9.74 141.35-10 139.57-10.25 137.83-10.82L137.83-10.82Q138.1-9.2 138.69-7.75 139.27-6.3 140.25-5.21 141.23-4.13 142.65-3.49 144.08-2.86 146.03-2.86L146.03-2.86Q147.33-2.86 148.5-3.25 149.67-3.64 150.65-4.35 151.63-5.05 152.37-6.03 153.12-7.01 153.58-8.2L153.58-8.2 157.14-6.88Q156.34-4.96 154.93-3.55 153.53-2.15 151.76-1.23 149.99-0.32 148 0.12 146.01 0.56 144.06 0.56L144.06 0.56Q140.83 0.56 138.1-0.52 135.37-1.61 133.39-3.56 131.41-5.52 130.29-8.23 129.16-10.94 129.16-14.16L129.16-14.16Q129.16-17.38 130.29-20.09 131.41-22.8 133.39-24.76 135.37-26.71 138.1-27.8 140.83-28.88 144.06-28.88L144.06-28.88Q145.62-28.88 147.26-28.66 148.89-28.44 150.43-27.97 151.97-27.49 153.33-26.73 154.7-25.98 155.72-24.87 156.73-23.75 157.33-22.29 157.92-20.83 157.92-18.95ZM206.7-16.46L206.7-16.46Q206.7-13.55 206.02-10.4 205.33-7.25 204.1-4.26 202.87-1.27 201.13 1.39 199.4 4.05 197.28 6.01L197.28 6.01 194.18 4.32Q194.88 3.05 195.47 1.46 196.06-0.12 196.55-1.88 197.03-3.64 197.4-5.49 197.77-7.35 198.02-9.19 198.28-11.04 198.4-12.77 198.52-14.5 198.52-16.02L198.52-16.02Q198.52-16.87 198.47-17.87 198.43-18.87 198.27-19.87 198.11-20.87 197.79-21.79 197.47-22.71 196.92-23.43 196.37-24.15 195.56-24.57 194.74-25 193.59-25L193.59-25Q192.47-25 191.67-24.4 190.88-23.8 190.32-22.85 189.76-21.9 189.43-20.7 189.1-19.51 188.93-18.3 188.76-17.09 188.7-15.99 188.63-14.89 188.63-14.14L188.63-14.14 188.63 0 180.41 0 180.41-13.13Q180.41-13.99 180.43-15.2 180.46-16.41 180.37-17.72 180.29-19.04 180.05-20.35 179.82-21.66 179.32-22.68 178.82-23.71 177.97-24.35 177.11-25 175.82-25L175.82-25Q174.72-25 173.97-24.39 173.23-23.78 172.73-22.81 172.23-21.85 171.95-20.64 171.67-19.43 171.53-18.23 171.4-17.02 171.37-15.93 171.35-14.84 171.35-14.14L171.35-14.14 171.35 0 163.07 0 163.07-28.2 166.25-28.2 169.27-21.63Q170.3-25.05 172.51-26.97 174.72-28.88 178.38-28.88L178.38-28.88Q181.68-28.88 183.85-27.51 186.02-26.15 187.27-23.07L187.27-23.07Q187.98-24.41 188.84-25.49 189.71-26.56 190.77-27.32 191.83-28.08 193.13-28.48 194.42-28.88 195.98-28.88L195.98-28.88Q198.86-28.88 200.9-27.94 202.94-27 204.24-25.34 205.53-23.68 206.12-21.4 206.7-19.12 206.7-16.46ZM218.98-13.38L218.98-13.38Q220.49-13.04 222.01-12.84 223.52-12.65 225.06-12.65L225.06-12.65Q226.67-12.65 228.05-12.95 229.43-13.26 230.44-13.98 231.45-14.7 232.04-15.89 232.63-17.09 232.63-18.87L232.63-18.87Q232.63-20.31 232.24-21.51 231.85-22.71 231.08-23.56 230.31-24.41 229.18-24.89 228.06-25.37 226.57-25.37L226.57-25.37Q225.18-25.37 224.07-24.85 222.96-24.34 222.12-23.47 221.27-22.61 220.68-21.46 220.08-20.31 219.69-19.07 219.3-17.82 219.13-16.55 218.95-15.28 218.95-14.16L218.95-14.16Q218.95-13.96 218.95-13.77 218.95-13.57 218.98-13.38ZM239.32-18.95L239.32-18.95Q239.32-17.21 238.75-15.86 238.19-14.5 237.23-13.48 236.26-12.45 234.99-11.74 233.73-11.04 232.28-10.58 230.84-10.13 229.32-9.94 227.79-9.74 226.35-9.74L226.35-9.74Q224.52-9.74 222.74-10 220.96-10.25 219.22-10.82L219.22-10.82Q219.49-9.2 220.08-7.75 220.66-6.3 221.64-5.21 222.62-4.13 224.05-3.49 225.47-2.86 227.43-2.86L227.43-2.86Q228.72-2.86 229.89-3.25 231.06-3.64 232.04-4.35 233.02-5.05 233.76-6.03 234.51-7.01 234.97-8.2L234.97-8.2 238.53-6.88Q237.73-4.96 236.33-3.55 234.92-2.15 233.15-1.23 231.38-0.32 229.39 0.12 227.4 0.56 225.45 0.56L225.45 0.56Q222.23 0.56 219.49-0.52 216.76-1.61 214.78-3.56 212.8-5.52 211.68-8.23 210.56-10.94 210.56-14.16L210.56-14.16Q210.56-17.38 211.68-20.09 212.8-22.8 214.78-24.76 216.76-26.71 219.49-27.8 222.23-28.88 225.45-28.88L225.45-28.88Q227.01-28.88 228.65-28.66 230.28-28.44 231.82-27.97 233.36-27.49 234.73-26.73 236.09-25.98 237.11-24.87 238.12-23.75 238.72-22.29 239.32-20.83 239.32-18.95ZM273.3-16.16L273.3-16.16Q273.3-13.31 272.6-10.21 271.91-7.1 270.66-4.13 269.42-1.15 267.68 1.48 265.95 4.1 263.87 6.01L263.87 6.01 260.77 4.32Q261.43 3.1 262.02 1.59 262.6 0.07 263.08-1.62 263.56-3.32 263.94-5.13 264.31-6.93 264.57-8.7 264.83-10.47 264.96-12.15 265.09-13.82 265.09-15.26L265.09-15.26Q265.09-16.21 265.02-17.3 264.95-18.38 264.72-19.47 264.48-20.56 264.09-21.56 263.7-22.56 263.06-23.32 262.41-24.07 261.49-24.54 260.58-25 259.33-25L259.33-25Q258.11-25 257.16-24.45 256.21-23.9 255.48-23.01 254.74-22.12 254.22-20.97 253.69-19.82 253.36-18.62 253.03-17.41 252.89-16.24 252.74-15.06 252.74-14.14L252.74-14.14 252.74 0 244.46 0 244.46-28.2 247.64-28.2 251.42-21.63Q252.11-23.27 253.13-24.61 254.16-25.95 255.45-26.9 256.75-27.86 258.32-28.37 259.89-28.88 261.73-28.88L261.73-28.88Q264.66-28.88 266.83-27.93 269-26.98 270.44-25.28 271.88-23.58 272.59-21.25 273.3-18.92 273.3-16.16ZM289.07-24.93L289.07 0 280.79 0 280.79-24.93 275.66-24.93 275.66-28.2 280.79-28.2 280.79-38.57 289.07-38.57 289.07-28.2 297.61-28.2 297.61-24.93 289.07-24.93Z" opacity="1" transform="matrix(1,0,0,1,0,0)" fill="black" class="slogan-text-1" id="SvgjsPath3313"></path></svg></g></svg></g></svg></g></svg></g><g transform="matrix(1,0,0,1,104.41658929107619,0)"><svg viewBox="0 0 186.6868214178476 186.64004318047512" height="186.64004318047512" width="186.6868214178476"><g><svg xmlns="http://www.w3.org/2000/svg" xmlns:xlink="http://www.w3.org/1999/xlink" version="1.1" x="0" y="0" viewBox="0.987969594543505 1 48.01203040545649 48" enable-background="new 0 0 50 50" xml:space="preserve" height="186.64004318047512" width="186.6868214178476" class="icon-icon-0" data-fill-palette-color="accent" id="SvgjsSvg3312"><g fill="black"><path d="M23.9 22.7C22.5 22.4 21 22.8 20 23.9 18.3 25.6 18.3 28.4 20 30 21.7 31.7 24.5 31.7 26.1 30 27.2 28.9 27.6 27.4 27.3 26 27.6 25.9 38.5 14.9 38.7 14.7L35.2 11.2C35 11.5 24 22.4 23.9 22.7" fill="black"></path><path d="M48.7 8.7L47.9 8 48.5 7.4C48.9 7 48.9 6.4 48.5 6L44 1.5C43.6 1.1 43 1.1 42.6 1.5L42 2.1 41.2 1.3C40.8 0.9 40.2 0.9 39.8 1.3S39.4 2.3 39.8 2.7L40.6 3.5 38.2 5.9 37.4 5.1C37 4.7 36.4 4.7 36 5.1S35.6 6.1 36 6.5L36.8 7.3 36.2 7.9C35.8 8.2 35.8 8.9 36.2 9.3L40.7 13.8C41.1 14.2 41.7 14.2 42.1 13.8L42.7 13.2 43.5 14C43.9 14.4 44.5 14.4 44.9 14S45.3 13 44.9 12.6L44.1 11.8 46.5 9.4 47.3 10.2C47.7 10.6 48.3 10.6 48.7 10.2S49.1 9.1 48.7 8.7" fill="black"></path><path d="M29.4 26.9C29.4 28.6 28.8 30.2 27.5 31.4 25 33.9 21 33.9 18.5 31.4 16 29 16 24.9 18.5 22.4 19.7 21.2 21.2 20.5 23 20.5L26.4 17.1C24.9 16.4 23.4 16 22 16 18.7 16 16.8 17.8 15.6 20.9 15 22.3 13.8 23.2 12.2 23.4 8.5 23.9 5.1 25.3 3.2 27.2-0.6 31.1 0.6 38.6 6 44 9.1 47.1 13.2 49 16.8 49 19.2 49 21.2 48.2 22.7 46.7 24.6 44.8 26 41.4 26.5 37.7 26.7 36.2 27.7 34.9 29 34.3 34.1 32.2 34.9 27.9 32.7 23.4zM17.5 39.8C17.3 40 17.1 40.1 16.8 40.1S16.3 40 16.1 39.8L10.2 33.9C9.8 33.5 9.8 32.9 10.2 32.5S11.2 32.1 11.6 32.5L17.5 38.4C17.9 38.7 17.9 39.4 17.5 39.8" fill="black"></path></g></svg></g></svg></g><g></g></svg></g><defs><mask></mask></defs></svg><rect width="387.3120487588574" height="327.2" fill="black" stroke="none" visibility="hidden"></rect></g></mask></svg><rect width="387.3120487588574" height="327.2" fill="black" stroke="none" visibility="hidden"></rect></g></mask><linearGradient x1="0" x2="1" y1="0.5" y2="0.5" id="2d791030-584d-4fc5-87d9-0fb03e86c37d"><stop stop-color="#f00b51" offset="0"></stop><stop stop-color="#730062" offset="1"></stop></linearGradient><rect width="387.3137248891345" height="327.2" fill="url(#2d791030-584d-4fc5-87d9-0fb03e86c37d)" mask="url(#95227695-61c5-4a5a-8cae-c9b726b1a671)" data-fill-palette-color="accent"></rect></svg><rect width="387.3120487588574" height="327.2" fill="none" stroke="none" visibility="hidden"></rect></g></svg></g></svg>